<?xml version="1.0" standalone="no"?>
<!DOCTYPE svg PUBLIC "-//W3C//DTD SVG 20010904//EN"
 "http://www.w3.org/TR/2001/REC-SVG-20010904/DTD/svg10.dtd">
<svg version="1.0" xmlns="http://www.w3.org/2000/svg"
 width="260.000000pt" height="260.000000pt" viewBox="0 0 260.000000 260.000000"
 preserveAspectRatio="xMidYMid meet">
<metadata>
Created by potrace 1.14, written by Peter Selinger 2001-2017
</metadata>
<g transform="translate(0.000000,260.000000) scale(0.100000,-0.100000)"
fill="#000000" stroke="none">
<path d="M0 2071 l1 -529 40 -6 c47 -7 44 -21 -6 -30 l-35 -7 0 -284 c0 -281
0 -285 21 -285 12 0 17 -4 14 -11 -4 -6 -13 -8 -21 -5 -12 5 -14 -65 -14 -454
l0 -460 1300 0 1300 0 0 534 c0 418 -3 535 -12 539 -10 4 -10 6 0 6 9 1 12
159 12 761 l0 760 -76 0 c-69 0 -75 -2 -69 -17 60 -152 93 -390 76 -548 -7
-74 -8 -67 -9 80 -1 178 -17 288 -59 408 -23 66 -30 77 -50 77 -28 0 -28 -5
-3 -58 26 -53 25 -69 -1 -19 -11 20 -22 37 -24 37 -3 0 -2 -21 1 -47 l6 -48
-33 68 -32 67 -1164 0 -1163 0 0 -529z m2304 437 c14 -32 21 -58 17 -58 -10 0
-16 13 -41 83 -23 63 -9 48 24 -25z m-124 15 c20 -43 50 -130 49 -143 0 -3 -7
9 -16 25 -10 17 -16 33 -15 37 1 4 -9 33 -23 64 -26 58 -28 64 -21 64 2 0 14
-21 26 -47z m76 16 c19 -22 19 -22 -3 -8 -13 8 -23 17 -23 21 0 12 6 9 26 -13z
m-105 -46 l24 -27 -32 23 c-33 23 -40 31 -25 31 5 0 19 -12 33 -27z m-47 1 c5
-14 4 -15 -9 -4 -17 14 -19 20 -6 20 5 0 12 -7 15 -16z m59 -76 c9 -31 2 -33
-11 -3 -6 14 -8 25 -3 25 5 0 11 -10 14 -22z m394 -30 c-3 -8 -6 -5 -6 6 -1
11 2 17 5 13 3 -3 4 -12 1 -19z m-2277 -59 c0 -6 -4 -7 -10 -4 -5 3 -10 11
-10 16 0 6 5 7 10 4 6 -3 10 -11 10 -16z m230 -300 c-5 -46 -10 -110 -10 -143
0 -33 -5 -86 -12 -117 -10 -50 -9 -63 6 -101 46 -110 64 -172 70 -245 10 -117
24 -190 52 -274 26 -80 38 -102 174 -314 46 -71 105 -170 133 -220 27 -49 60
-105 74 -124 23 -29 23 -32 5 -22 -11 6 -45 57 -76 115 -30 57 -106 181 -167
277 -62 95 -125 202 -140 238 -32 76 -55 186 -68 317 -6 68 -18 116 -47 188
l-38 97 12 97 c7 53 12 114 12 134 0 45 21 190 27 185 2 -3 -1 -42 -7 -88z
m2007 -141 c-3 -7 -5 -2 -5 12 0 14 2 19 5 13 2 -7 2 -19 0 -25z m-880 -20
c-3 -8 -6 -5 -6 6 -1 11 2 17 5 13 3 -3 4 -12 1 -19z m27 -54 c11 -11 16 -35
16 -80 0 -62 -1 -64 -20 -54 -25 13 -27 32 -2 23 15 -5 15 -4 -2 9 -12 10 -20
32 -24 66 -5 55 4 65 32 36z m-96 -33 c7 -21 12 -41 12 -45 0 -3 -27 -6 -59
-6 -55 0 -59 2 -66 27 -6 27 5 40 50 55 42 13 52 8 63 -31z m151 -94 c1 -43
-3 -66 -9 -62 -6 3 -10 45 -9 93 1 103 16 76 18 -31z m-306 35 c-33 -5 -41 5
-18 22 17 12 21 12 31 -3 11 -14 9 -16 -13 -19z m368 -74 c-1 -46 -6 -109 -12
-142 -15 -87 -3 -79 15 11 15 77 16 77 10 18 -2 -33 -7 -78 -9 -100 -2 -22 4
1 15 50 10 50 22 116 26 148 4 32 10 54 14 48 3 -7 3 -40 -2 -74 -5 -34 -6
-80 -4 -102 4 -29 3 -33 -3 -15 -5 18 -7 9 -7 -34 0 -56 1 -57 13 -30 7 16 20
64 30 107 10 42 22 77 27 77 4 0 7 -47 4 -105 -2 -58 -3 -105 -2 -105 1 0 16
40 33 88 35 97 67 156 80 148 4 -3 25 13 47 35 84 87 134 86 154 -3 40 -176
18 -280 -82 -394 -86 -98 -149 -210 -68 -121 l29 32 1 -43 c0 -24 5 -53 12
-65 7 -13 11 -63 10 -122 -1 -55 1 -94 4 -87 9 20 38 14 87 -19 83 -55 78 -70
-77 -225 -95 -95 -199 -175 -310 -239 -44 -26 -47 -26 -35 -7 8 12 83 81 168
154 145 125 241 225 241 251 -1 18 -32 53 -54 61 -17 6 -18 2 -13 -41 3 -27 8
-55 12 -63 8 -21 -99 -127 -185 -184 -296 -197 -486 -304 -504 -285 -6 5 -25
9 -43 9 -28 0 -33 4 -33 23 0 63 21 95 114 181 52 47 99 86 105 86 6 0 16 -12
21 -26 9 -22 4 -41 -31 -118 -23 -50 -46 -97 -52 -103 -6 -9 -6 -13 0 -13 22
0 169 268 296 540 45 97 66 127 126 189 39 41 69 76 67 79 -9 8 34 83 102 181
49 70 60 92 45 87 -19 -6 -20 -4 -13 26 4 18 16 50 26 71 17 36 19 37 32 20
12 -16 13 -14 8 22 -3 22 -8 63 -11 92 -4 29 -14 58 -22 65 -13 10 -19 8 -39
-17 -13 -17 -22 -37 -18 -45 3 -8 2 -11 -2 -7 -4 4 -20 -4 -35 -19 -36 -35
-72 -30 -79 11 -5 30 -5 30 -29 -20 -26 -54 -31 -112 -18 -207 6 -51 5 -57
-13 -63 -22 -7 -35 -46 -46 -140 -9 -78 -83 -255 -107 -255 -4 0 -51 -21 -104
-47 l-96 -46 -17 21 c-11 13 -20 48 -24 96 -4 41 -16 101 -26 132 -11 31 -20
63 -20 70 0 7 26 52 58 101 92 140 115 184 134 258 l18 70 -6 -75 c-3 -41 -8
-86 -11 -100 -3 -14 -3 -22 1 -18 11 10 46 255 46 323 0 55 1 58 16 43 14 -13
17 -34 15 -100z m389 -32 c0 -19 -7 -53 -15 -76 -8 -23 -15 -63 -16 -89 l0
-46 -15 40 c-8 21 -23 49 -34 61 -25 26 -18 49 20 63 27 9 45 40 39 67 -3 18
1 25 11 19 6 -3 10 -21 10 -39z m-1540 -45 c0 -5 15 -19 33 -31 28 -18 29 -20
7 -15 -14 4 -36 18 -50 31 -20 20 -22 24 -7 24 9 0 17 -4 17 -9z m926 -30
c-30 -32 -90 -51 -157 -51 -34 0 -39 2 -30 14 10 11 7 17 -11 30 -18 13 -19
16 -5 16 9 0 17 -4 17 -10 0 -27 91 -43 113 -21 8 8 7 11 -1 11 -7 0 -12 4
-12 9 0 5 18 8 39 6 30 -2 38 1 34 11 -3 9 2 14 18 14 23 0 23 0 -5 -29z
m-746 10 c0 -5 -9 -7 -20 -4 -11 3 -20 7 -20 9 0 2 9 4 20 4 11 0 20 -4 20 -9z
m445 -21 c-27 -12 -43 -12 -25 0 8 5 22 9 30 9 10 0 8 -3 -5 -9z m916 -17
c-12 -20 -14 -14 -5 12 4 9 9 14 11 11 3 -2 0 -13 -6 -23z m-851 -3 c20 -6 21
-8 5 -8 -11 0 -33 4 -50 8 -27 7 -27 8 -5 8 14 0 36 -4 50 -8z m-1055 -10 c3
-5 1 -10 -4 -10 -6 0 -11 5 -11 10 0 6 2 10 4 10 3 0 8 -4 11 -10z m-8 -27
c-2 -2 -37 -6 -77 -9 -58 -5 -71 -3 -68 7 4 10 20 13 56 11 28 -1 53 2 57 8 5
8 11 7 21 -1 8 -6 13 -14 11 -16z m163 -45 c0 -5 -7 -8 -15 -8 -8 0 -15 -6
-15 -12 -1 -7 -7 -2 -14 12 -15 26 -10 52 5 29 6 -10 9 -7 9 11 l1 25 14 -25
c8 -14 14 -28 15 -32z m81 19 c-10 -9 -11 -8 -5 6 3 10 9 15 12 12 3 -3 0 -11
-7 -18z m1899 -12 c-6 -8 -18 -11 -26 -8 -19 7 -10 18 16 20 17 2 19 -1 10
-12z m-2100 -5 c0 11 4 9 12 -5 6 -11 15 -23 20 -26 5 -3 4 -17 -1 -32 -13
-35 -48 -35 -79 -2 l-24 24 28 26 c21 19 29 22 36 13 6 -10 8 -10 8 2z m67
-34 l22 -44 -23 2 c-17 1 -23 7 -23 26 1 14 -3 33 -7 43 -5 9 -4 17 1 17 5 0
19 -20 30 -44z m1911 -29 c6 3 12 0 12 -6 0 -6 -12 -13 -27 -16 -16 -4 -36
-11 -46 -16 -17 -9 -17 -8 -2 21 12 24 19 28 33 22 9 -5 23 -7 30 -5z m-2108
-37 c0 -33 -4 -41 -24 -46 -13 -3 -35 -4 -47 -2 l-24 4 25 12 c38 17 60 38 60
56 0 9 2 16 5 16 3 0 5 -18 5 -40z m2298 -6 c30 -8 28 -19 -4 -22 -30 -2 -47
6 -39 19 7 11 12 11 43 3z m-1947 -63 c6 10 9 11 9 2 0 -7 7 -13 15 -13 21 0
19 -13 -5 -27 -16 -11 -21 -10 -30 6 -5 11 -10 26 -9 33 0 10 2 10 6 -1 5 -11
7 -11 14 0z m-355 -52 c3 -5 -2 -12 -10 -15 -18 -7 -49 13 -41 26 6 10 43 1
51 -11z m2019 -9 c-3 -5 3 -11 12 -13 10 -3 2 -5 -19 -6 -31 -1 -35 2 -31 18
3 13 11 17 24 14 10 -3 17 -9 14 -13z m-2136 -6 c6 4 11 3 11 -2 0 -9 -41 -25
-47 -18 -2 2 0 11 3 20 5 13 9 14 14 6 4 -7 13 -9 19 -6z m999 -39 c19 -41 15
-45 -38 -45 -27 0 -50 3 -50 7 0 12 53 63 65 63 7 0 17 -11 23 -25z m1073 -30
c-6 -35 -9 -41 -10 -20 -1 30 9 78 15 73 2 -2 -1 -26 -5 -53z m306 19 c-3 -3
-12 -4 -19 -1 -8 3 -5 6 6 6 11 1 17 -2 13 -5z m-1947 -14 c37 -1 -18 -20 -57
-20 -44 0 -52 -7 -31 -28 14 -14 -1 -16 -38 -6 -28 7 -21 42 10 49 11 2 30 6
41 9 11 2 29 2 40 0 11 -2 27 -4 35 -4z m209 -190 c26 -39 33 -55 20 -47 -10
6 -19 17 -19 22 0 13 -38 17 -45 5 -8 -13 -35 -1 -35 15 0 8 7 21 16 30 15 14
17 14 31 -2 13 -16 13 -16 3 5 -12 25 -14 26 -40 12 -24 -13 -35 3 -15 20 19
16 19 35 -1 54 -8 9 -12 21 -8 27 4 7 16 -8 30 -35 13 -25 41 -73 63 -106z
m1623 71 c15 -5 44 -22 63 -38 30 -23 40 -42 61 -113 13 -47 33 -104 44 -126
14 -31 16 -44 7 -53 -6 -6 -14 -11 -19 -11 -15 0 -36 56 -42 115 -14 128 -17
135 -53 168 -21 19 -43 31 -55 29 -12 -2 -18 1 -14 7 4 6 1 9 -7 5 -8 -3 -17
1 -20 9 -3 8 -19 14 -36 15 -25 0 -28 -2 -18 -13 6 -7 14 -11 16 -9 2 1 10 -3
17 -11 8 -8 22 -11 31 -8 10 4 14 2 10 -4 -4 -5 0 -19 9 -29 14 -18 15 -18 9
6 -5 19 -4 22 4 10 7 -10 11 -11 11 -2 0 17 17 15 23 -2 4 -10 1 -13 -9 -9 -7
3 -14 1 -14 -5 0 -6 6 -13 13 -15 7 -3 5 -6 -5 -6 -20 -1 -22 -9 -9 -30 6 -9
4 -22 -6 -37 -8 -13 -11 -29 -7 -36 5 -9 4 -10 -4 -3 -8 8 -9 21 -2 44 16 57
-11 96 -88 127 -31 12 -40 19 -30 25 7 5 -3 6 -24 2 -35 -5 -38 -4 -38 19 l0
25 77 -18 c42 -10 90 -23 105 -28z m-2082 35 c0 -11 -19 -15 -25 -6 -3 5 1 10
9 10 9 0 16 -2 16 -4z m-160 -36 c0 -5 5 -9 12 -7 6 1 14 -6 16 -16 4 -17 2
-18 -27 -2 -33 16 -41 35 -16 35 8 0 15 -4 15 -10z m107 -37 c-9 -9 -19 -14
-23 -11 -10 10 6 28 24 28 15 0 15 -1 -1 -17z m-77 -33 c0 -5 -7 -10 -15 -10
-8 0 -15 5 -15 10 0 6 7 10 15 10 8 0 15 -4 15 -10z m60 -5 c0 -8 -6 -15 -14
-15 -17 0 -28 14 -19 24 12 12 33 6 33 -9z m277 -11 c-3 -3 -12 -4 -19 -1 -8
3 -5 6 6 6 11 1 17 -2 13 -5z m1388 -24 c-3 -5 -12 -10 -18 -10 -7 0 -6 4 3
10 19 12 23 12 15 0z m575 -24 c0 -2 -7 -6 -15 -10 -8 -3 -15 -1 -15 4 0 6 7
10 15 10 8 0 15 -2 15 -4z m-1675 -73 c-22 -19 -41 -30 -43 -24 -2 5 -10 7
-19 4 -11 -4 -14 -2 -9 5 5 8 2 10 -8 6 -9 -3 -22 1 -30 9 -25 25 3 39 62 31
33 -4 52 -2 56 5 4 6 12 8 19 4 6 -4 -4 -19 -28 -40z m383 29 c3 -9 -2 -13
-14 -10 -9 1 -19 9 -22 16 -3 9 2 13 14 10 9 -1 19 -9 22 -16z m1269 12 c-3
-3 -12 -4 -19 -1 -8 3 -5 6 6 6 11 1 17 -2 13 -5z m30 -36 c0 -18 -2 -25 -4
-15 -3 9 -9 17 -14 17 -7 0 8 26 17 30 1 0 1 -15 1 -32z m-2127 -8 c12 -8 11
-10 -7 -10 -13 0 -23 5 -23 10 0 13 11 13 30 0z m2036 -25 c1 -8 -2 -13 -7 -9
-5 3 -6 10 -3 16 5 7 1 9 -9 5 -17 -6 -23 4 -10 17 8 8 26 -9 29 -29z m-1766
-2 c11 -12 20 -25 20 -28 0 -12 -38 -4 -50 10 -9 11 -16 13 -24 5 -15 -15 -63
-12 -98 6 -43 22 -22 32 63 30 56 -1 72 -6 89 -23z m1727 -21 c-25 -27 -21
-38 5 -16 21 18 18 6 -5 -24 -8 -11 -12 -11 -18 0 -7 10 -11 10 -21 0 -9 -9
-9 -12 0 -12 8 0 6 -7 -5 -19 -9 -11 -22 -17 -29 -14 -8 3 -14 0 -14 -5 0 -6
12 -9 28 -6 25 4 26 3 8 -10 -10 -8 -15 -20 -11 -28 3 -7 0 -5 -8 4 -8 10 -17
14 -21 10 -4 -4 -12 -7 -18 -7 -6 0 -12 -8 -14 -17 -1 -10 2 -18 7 -18 5 0 9
4 9 8 0 5 7 9 15 9 12 0 12 -3 -3 -17 -12 -13 -21 -15 -30 -7 -11 8 -13 7 -10
-8 1 -10 -3 -20 -10 -22 -8 -3 -10 1 -6 12 6 15 4 15 -14 4 -12 -8 -17 -16
-11 -20 6 -3 4 -11 -6 -19 -8 -7 -15 -10 -15 -6 0 3 -14 -8 -30 -26 -41 -42
-47 -31 -7 12 131 143 162 175 169 173 4 -2 7 0 6 5 -4 10 55 82 66 82 5 0 2
-8 -7 -18z m140 12 c-3 -4 2 -28 13 -55 l18 -49 -27 -19 c-72 -51 -205 -121
-214 -112 -5 5 3 12 22 16 17 4 29 11 26 15 -3 5 -13 6 -22 3 -15 -6 -16 -5
-3 9 14 15 17 15 33 1 10 -10 17 -12 17 -5 0 7 6 12 13 12 7 0 22 7 33 16 16
13 16 15 2 10 -10 -3 -18 -1 -18 4 0 6 5 10 11 10 5 0 7 4 4 10 -3 5 0 7 8 4
8 -3 18 -1 22 5 3 6 11 11 16 11 6 0 7 -4 4 -10 -12 -20 13 -9 29 13 9 12 14
15 10 7 -5 -11 -4 -12 5 -4 15 13 4 67 -12 57 -6 -3 -7 -1 -3 5 4 6 2 21 -4
32 -9 16 -8 20 6 20 10 0 15 -3 11 -6z m-2277 -44 c0 -5 -4 -10 -9 -10 -6 0
-13 5 -16 10 -3 6 1 10 9 10 9 0 16 -4 16 -10z m2160 -28 c0 -5 -7 -9 -15 -9
-8 0 -12 4 -9 9 3 4 9 8 15 8 5 0 9 -4 9 -8z m-1846 -83 c-6 -11 -54 -12 -54
-1 0 4 13 7 30 8 16 1 27 -3 24 -7z m-71 -18 c15 -6 13 -9 -16 -23 -34 -16
-34 -16 -32 5 1 12 3 23 4 25 2 4 26 1 44 -7z m1762 -71 c-3 -5 -12 -10 -18
-10 -7 0 -6 4 3 10 19 12 23 12 15 0z m55 -5 c0 -2 -28 -19 -62 -38 -35 -19
-89 -49 -120 -66 -32 -18 -58 -30 -58 -27 0 3 18 15 40 26 25 13 38 25 34 32
-4 7 -3 8 4 4 7 -4 30 4 53 17 27 16 36 27 27 31 -10 4 -9 5 2 4 24 -3 61 13
55 23 -3 5 1 6 9 3 9 -3 16 -8 16 -9z m-219 -79 c-12 -13 -46 -38 -74 -56 -63
-39 -56 -30 26 32 71 53 80 58 48 24z m-66 -81 c-22 -14 -44 -25 -50 -25 -12
0 66 48 80 49 6 0 -8 -11 -30 -24z m-79 -40 c-11 -8 -27 -15 -35 -15 -9 1 -2
7 14 15 39 18 44 18 21 0z m-553 -53 l38 -7 -30 -29 c-17 -17 -31 -25 -31 -18
0 28 -99 56 -130 37 -13 -7 -13 -6 -2 7 22 28 55 30 155 10z m153 -7 c3 -8 0
-31 -6 -51 -12 -36 -12 -36 -24 -12 -7 13 -21 23 -33 22 -17 0 -20 3 -13 20 6
17 30 31 63 35 4 1 10 -6 13 -14z m-103 -20 c-3 -9 -8 -14 -10 -11 -3 3 -2 9
2 15 9 16 15 13 8 -4z m77 -95 c0 -5 -5 -10 -11 -10 -5 0 -7 5 -4 10 3 6 8 10
11 10 2 0 4 -4 4 -10z"/>
<path d="M2140 1030 c0 -5 5 -10 11 -10 5 0 7 5 4 10 -3 6 -8 10 -11 10 -2 0
-4 -4 -4 -10z"/>
<path d="M2345 620 c-3 -5 -2 -10 4 -10 5 0 13 5 16 10 3 6 2 10 -4 10 -5 0
-13 -4 -16 -10z"/>
<path d="M2345 2590 c3 -5 8 -10 11 -10 2 0 4 5 4 10 0 6 -5 10 -11 10 -5 0
-7 -4 -4 -10z"/>
</g>
</svg>
